<?xml version="1.0" encoding="UTF-8"?>
<svg width="66px" height="73px" viewBox="0 0 66 73" version="1.1" xmlns="http://www.w3.org/2000/svg" xmlns:xlink="http://www.w3.org/1999/xlink">
    <!-- Generator: sketchtool 39 (31667) - http://www.bohemiancoding.com/sketch -->
    <title>95221D10-F190-41A1-8087-330DCDF58624</title>
    <desc>Created with sketchtool.</desc>
    <defs></defs>
    <g id="Page-1" stroke="none" stroke-width="1" fill="none" fill-rule="evenodd">
        <g id="375-iPhone-7-and-less" transform="translate(-20.000000, -3065.000000)" stroke-width="2.29591837">
            <g id="confetti1" transform="translate(21.258503, 3066.326531)">
                <polyline id="Path-11032" stroke="#FF5015" stroke-linecap="round" stroke-linejoin="round" transform="translate(2.822250, 22.631210) scale(-1, 1) rotate(10.000000) translate(-2.822250, -22.631210) " points="4.36165846 15.7340985 1.28284072 19.1826541 4.36165846 22.6312098 1.28284072 26.0797655 4.36165846 29.5283211"></polyline>
                <ellipse id="Oval-3653" stroke="#8BD4CE" cx="4.32500586" cy="66.5337107" rx="3.07881773" ry="3.06538281"></ellipse>
                <rect id="Rectangle-5855" stroke="#FFD43F" stroke-linejoin="round" transform="translate(42.150481, 10.296080) rotate(45.000000) translate(-42.150481, -10.296080) " x="39.0716631" y="7.2306971" width="6.15763547" height="6.13076562" rx="1.22448972"></rect>
                <polyline id="Path-11032-Copy" stroke="#F2F2F2" stroke-linecap="round" stroke-linejoin="round" transform="translate(60.536822, 13.862365) rotate(10.000000) translate(-60.536822, -13.862365) " points="62.0762307 6.96525401 58.997413 10.4138097 62.0762307 13.8623653 58.997413 17.310921 62.0762307 20.7594767"></polyline>
                <ellipse id="Oval-3653-Copy" stroke="#F2F2F2" cx="15.8339198" cy="3.06538281" rx="3.07881773" ry="3.06538281"></ellipse>
                <rect id="Rectangle-5855-Copy" stroke="#F2F2F2" stroke-linejoin="round" transform="translate(12.848007, 42.149495) rotate(45.000000) translate(-12.848007, -42.149495) " x="9.7691895" y="39.0841122" width="6.15763547" height="6.13076562" rx="1.22448972"></rect>
            </g>
        </g>
    </g>
</svg>