<?xml version="1.0" encoding="UTF-8"?>
<svg width="58px" height="74px" viewBox="0 0 58 74" version="1.1" xmlns="http://www.w3.org/2000/svg" xmlns:xlink="http://www.w3.org/1999/xlink">
    <!-- Generator: sketchtool 39 (31667) - http://www.bohemiancoding.com/sketch -->
    <title>442BB993-47CC-4C47-BCF5-4A96FAEA7A7E</title>
    <desc>Created with sketchtool.</desc>
    <defs></defs>
    <g id="Page-1" stroke="none" stroke-width="1" fill="none" fill-rule="evenodd">
        <g id="375-iPhone-7-and-less" transform="translate(-304.000000, -3064.000000)" stroke-width="2.29591837">
            <g id="confetti2" transform="translate(305.272109, 3065.476190)">
                <polyline id="Path-11032-Copy-3" stroke="#8BD4CE" stroke-linecap="round" stroke-linejoin="round" transform="translate(52.534337, 24.211712) scale(1, -1) rotate(10.000000) translate(-52.534337, -24.211712) " points="54.081407 17.3860085 50.9872662 20.7988601 54.081407 24.2117117 50.9872662 27.6245633 54.081407 31.037415"></polyline>
                <ellipse id="Oval-3653-Copy-3" stroke="#FFD43F" transform="translate(44.403574, 67.384890) scale(-1, 1) translate(-44.403574, -67.384890) " cx="44.4035745" cy="67.3848896" rx="3.09414088" ry="3.03364589"></ellipse>
                <rect id="Rectangle-5855-Copy-3" stroke="#FF5015" stroke-linejoin="round" transform="translate(20.539829, 14.587413) scale(-1, 1) rotate(45.000000) translate(-20.539829, -14.587413) " x="17.445688" y="11.553767" width="6.18828176" height="6.06729178" rx="1.22448972"></rect>
                <polyline id="Path-11032-Copy-6" stroke="#F2F2F2" stroke-linecap="round" stroke-linejoin="round" transform="translate(2.708838, 6.990651) scale(-1, -1) rotate(10.000000) translate(-2.708838, -6.990651) " points="4.25590834 0.164948193 1.16176746 3.57779982 4.25590834 6.99065145 1.16176746 10.4035031 4.25590834 13.8163547"></polyline>
                <ellipse id="Oval-3653-Copy-6" stroke="#F2F2F2" transform="translate(41.359447, 3.033646) scale(-1, 1) translate(-41.359447, -3.033646) " cx="41.359447" cy="3.03364589" rx="3.09414088" ry="3.03364589"></ellipse>
                <rect id="Rectangle-5855-Copy-6" stroke="#F2F2F2" stroke-linejoin="round" transform="translate(40.047285, 42.598306) scale(-1, 1) rotate(45.000000) translate(-40.047285, -42.598306) " x="36.9531444" y="39.5646598" width="6.18828176" height="6.06729178" rx="1.22448972"></rect>
            </g>
        </g>
    </g>
</svg>